<svg xmlns="http://www.w3.org/2000/svg" viewBox="0 0 512 512">
  <defs>
    <linearGradient id="g" x1="0" y1="0" x2="1" y2="1">
      <stop offset="0" stop-color="#7C3AED"/>
      <stop offset="0.5" stop-color="#EC4899"/>
      <stop offset="1" stop-color="#FBBF24"/>
    </linearGradient>
    <radialGradient id="glow" cx="0.5" cy="0.4" r="0.6">
      <stop offset="0" stop-color="#fff" stop-opacity="0.25"/>
      <stop offset="1" stop-color="#fff" stop-opacity="0"/>
    </radialGradient>
  </defs>
  <rect width="512" height="512" rx="96" fill="url(#g)"/>
  <rect width="512" height="512" rx="96" fill="url(#glow)"/>
  <!-- Rocket glyph in the centre -->
  <g transform="translate(256 256)">
    <g transform="translate(0 10)">
      <!-- Flame -->
      <path d="M-30 110 Q-10 160 0 190 Q10 160 30 110 Z" fill="#FBBF24"/>
      <path d="M-18 115 Q-6 150 0 170 Q6 150 18 115 Z" fill="#FDE68A"/>
    </g>
    <!-- Rocket body -->
    <path d="M0 -130
             C 60 -100 70 -30 70 40
             L 70 100
             L -70 100
             L -70 40
             C -70 -30 -60 -100 0 -130 Z"
          fill="#fff"/>
    <!-- Fins -->
    <path d="M-70 40 L-115 110 L-70 100 Z" fill="#0B0B1A"/>
    <path d="M70 40 L115 110 L70 100 Z" fill="#0B0B1A"/>
    <!-- Window -->
    <circle cx="0" cy="-30" r="32" fill="#60A5FA"/>
    <circle cx="0" cy="-30" r="32" fill="none" stroke="#0B0B1A" stroke-width="6"/>
    <path d="M-18 -40 Q0 -56 20 -38" stroke="#fff" stroke-width="6" fill="none" stroke-linecap="round" opacity="0.7"/>
    <!-- Body stripe -->
    <rect x="-70" y="50" width="140" height="8" fill="#0B0B1A"/>
  </g>
  <!-- Twinkles -->
  <circle cx="90" cy="110" r="4" fill="#fff" opacity="0.7"/>
  <circle cx="420" cy="130" r="5" fill="#fff" opacity="0.8"/>
  <circle cx="400" cy="410" r="3" fill="#fff" opacity="0.7"/>
  <circle cx="110" cy="400" r="4" fill="#fff" opacity="0.6"/>
</svg>
