<svg xmlns="http://www.w3.org/2000/svg" viewBox="0 0 512 512">
  <defs>
    <linearGradient id="gm" x1="0" y1="0" x2="1" y2="1">
      <stop offset="0" stop-color="#7C3AED"/>
      <stop offset="0.5" stop-color="#EC4899"/>
      <stop offset="1" stop-color="#FBBF24"/>
    </linearGradient>
  </defs>
  <!-- Full-bleed bg so any mask shape reveals colour, not transparency -->
  <rect width="512" height="512" fill="url(#gm)"/>
  <!-- Rocket glyph constrained to the 80% safe-zone (inner 410px circle) -->
  <g transform="translate(256 256) scale(0.78)">
    <g transform="translate(0 10)">
      <path d="M-30 110 Q-10 160 0 190 Q10 160 30 110 Z" fill="#FBBF24"/>
      <path d="M-18 115 Q-6 150 0 170 Q6 150 18 115 Z" fill="#FDE68A"/>
    </g>
    <path d="M0 -130
             C 60 -100 70 -30 70 40
             L 70 100
             L -70 100
             L -70 40
             C -70 -30 -60 -100 0 -130 Z"
          fill="#fff"/>
    <path d="M-70 40 L-115 110 L-70 100 Z" fill="#0B0B1A"/>
    <path d="M70 40 L115 110 L70 100 Z" fill="#0B0B1A"/>
    <circle cx="0" cy="-30" r="32" fill="#60A5FA"/>
    <circle cx="0" cy="-30" r="32" fill="none" stroke="#0B0B1A" stroke-width="6"/>
    <rect x="-70" y="50" width="140" height="8" fill="#0B0B1A"/>
  </g>
</svg>
